<svg width="24" height="28" viewBox="0 0 24 28" fill="none" xmlns="http://www.w3.org/2000/svg">
<g filter="url(#filter0_d_58_115)">
<path d="M12 0C8.12297 0 4.96875 3.15422 4.96875 7.03125C4.96875 8.34117 5.3316 9.61953 6.01832 10.7286L11.5998 19.723C11.7067 19.8953 11.895 20 12.0976 20C12.0992 20 12.1007 20 12.1023 20C12.3066 19.9984 12.4954 19.8905 12.6003 19.7152L18.0395 10.6336C18.6883 9.54797 19.0312 8.30231 19.0312 7.03125C19.0312 3.15422 15.877 0 12 0ZM17.0338 10.032L12.0887 18.2885L7.01434 10.1112C6.44273 9.18805 6.13281 8.12305 6.13281 7.03125C6.13281 3.80039 8.76914 1.16406 12 1.16406C15.2309 1.16406 17.8633 3.80039 17.8633 7.03125C17.8633 8.09066 17.5738 9.12844 17.0338 10.032Z" fill="#F3A800"/>
<path d="M12 3.51562C10.0615 3.51562 8.48438 5.09273 8.48438 7.03125C8.48438 8.95738 10.0358 10.5469 12 10.5469C13.9884 10.5469 15.5156 8.93621 15.5156 7.03125C15.5156 5.09273 13.9385 3.51562 12 3.51562ZM12 9.38281C10.7009 9.38281 9.64844 8.32684 9.64844 7.03125C9.64844 5.73891 10.7077 4.67969 12 4.67969C13.2923 4.67969 14.3477 5.73891 14.3477 7.03125C14.3477 8.30793 13.3197 9.38281 12 9.38281Z" fill="#F3A800"/>
</g>
<defs>
<filter id="filter0_d_58_115" x="-2" y="0" width="28" height="28" filterUnits="userSpaceOnUse" color-interpolation-filters="sRGB">
<feFlood flood-opacity="0" result="BackgroundImageFix"/>
<feColorMatrix in="SourceAlpha" type="matrix" values="0 0 0 0 0 0 0 0 0 0 0 0 0 0 0 0 0 0 127 0" result="hardAlpha"/>
<feOffset dy="4"/>
<feGaussianBlur stdDeviation="2"/>
<feComposite in2="hardAlpha" operator="out"/>
<feColorMatrix type="matrix" values="0 0 0 0 0 0 0 0 0 0 0 0 0 0 0 0 0 0 0.25 0"/>
<feBlend mode="normal" in2="BackgroundImageFix" result="effect1_dropShadow_58_115"/>
<feBlend mode="normal" in="SourceGraphic" in2="effect1_dropShadow_58_115" result="shape"/>
</filter>
</defs>
</svg>
